<!-- Generated by IcoMoon.io -->
<svg version="1.1" xmlns="http://www.w3.org/2000/svg" width="26" height="32" viewBox="0 0 26 32">
<title>basket</title>
<path d="M2.817 32h20.767c1.503 0 2.769-1.218 2.769-2.802 0-0.081 0-0.162 0-0.244l-1.108-18.274c-0.119-1.706-1.503-3.005-3.165-3.046h-1.464c0-4.223-3.323-7.635-7.437-7.635s-7.437 3.411-7.437 7.635h-1.464c-1.661 0-3.046 1.34-3.164 3.046l-1.108 18.274c-0.119 1.584 1.028 2.924 2.571 3.046 0.119 0 0.198 0 0.237 0zM8.75 7.635c0-2.518 1.978-4.548 4.43-4.548s4.43 2.030 4.43 4.548h-8.861zM4.122 10.843c0.040-0.081 0.119-0.162 0.198-0.203h1.464v3.046c0 0.853 0.672 1.543 1.503 1.543s1.503-0.69 1.503-1.543v-3.005h8.9v3.046c0 0.853 0.672 1.503 1.503 1.503s1.464-0.69 1.464-1.503v-3.046h1.464c0.079 0 0.158 0.081 0.198 0.203l1.108 18.071h-20.372l1.068-18.112zM19.866 22.863h-13.291c-0.435 0-0.791 0.365-0.791 0.812v1.421c0 0.447 0.356 0.812 0.791 0.812h13.251c0.435 0 0.791-0.365 0.791-0.812v-1.421c0.040-0.447-0.316-0.812-0.752-0.812z"></path>
</svg>
