<!-- Generated by IcoMoon.io -->
<svg version="1.1" xmlns="http://www.w3.org/2000/svg" width="32" height="32" viewBox="0 0 32 32">
<title>close</title>
<path d="M22.3 9.71c-0.187-0.187-0.44-0.293-0.705-0.293s-0.518 0.105-0.705 0.293l-4.89 4.88-4.89-4.89c-0.187-0.187-0.44-0.293-0.705-0.293s-0.518 0.105-0.705 0.293c-0.39 0.39-0.39 1.020 0 1.41l4.89 4.89-4.89 4.89c-0.39 0.39-0.39 1.020 0 1.41s1.020 0.39 1.41 0l4.89-4.89 4.89 4.89c0.39 0.39 1.020 0.39 1.41 0s0.39-1.020 0-1.41l-4.89-4.89 4.89-4.89c0.38-0.38 0.38-1.020 0-1.4z"></path>
</svg>
