<!-- Generated by IcoMoon.io -->
<svg version="1.1" xmlns="http://www.w3.org/2000/svg" width="32" height="32" viewBox="0 0 32 32">
<title>lock</title>
<path d="M21.375 12.688h-0.813v-1.625c0-2.242-1.82-4.063-4.063-4.063s-4.063 1.82-4.063 4.063v1.625h-0.813c-0.894 0-1.625 0.731-1.625 1.625v8.125c0 0.894 0.731 1.625 1.625 1.625h9.75c0.894 0 1.625-0.731 1.625-1.625v-8.125c0-0.894-0.731-1.625-1.625-1.625zM16.5 20c-0.894 0-1.625-0.731-1.625-1.625s0.731-1.625 1.625-1.625c0.894 0 1.625 0.731 1.625 1.625s-0.731 1.625-1.625 1.625zM14.063 12.688v-1.625c0-1.349 1.089-2.438 2.438-2.438s2.438 1.089 2.438 2.438v1.625h-4.875z"></path>
</svg>
