<!-- Generated by IcoMoon.io -->
<svg version="1.1" xmlns="http://www.w3.org/2000/svg" width="32" height="32" viewBox="0 0 32 32">
<title>pulse</title>
<path d="M19.091 24.273c-0.345 0-0.691-0.259-0.777-0.605l-4.405-13.041-1.814 5.355c-0.086 0.259-0.432 0.518-0.777 0.518h-3.455c-0.518 0-0.864-0.345-0.864-0.864s0.345-0.864 0.864-0.864h2.85l2.418-7.168c0.086-0.345 0.432-0.605 0.777-0.605s0.691 0.259 0.777 0.605l4.405 13.041 1.814-5.355c0.086-0.345 0.432-0.605 0.777-0.605h3.455c0.518 0 0.864 0.345 0.864 0.864s-0.345 0.864-0.864 0.864h-2.85l-2.418 7.168c-0.086 0.432-0.432 0.691-0.777 0.691z"></path>
</svg>
