<!-- Generated by IcoMoon.io -->
<svg version="1.1" xmlns="http://www.w3.org/2000/svg" width="20" height="32" viewBox="0 0 20 32">
<title>twitter</title>
<path d="M20 9.942c-0.567 0.836-1.252 1.548-2.056 2.136 0.008 0.12 0.013 0.299 0.013 0.537 0 1.109-0.159 2.214-0.483 3.318-0.322 1.104-0.81 2.163-1.466 3.177-0.657 1.014-1.437 1.913-2.341 2.692-0.905 0.781-1.998 1.403-3.274 1.868-1.277 0.463-2.644 0.696-4.099 0.696-2.293 0-4.391-0.618-6.293-1.853 0.295 0.035 0.625 0.051 0.99 0.051 1.903 0 3.6-0.59 5.089-1.765-0.888-0.017-1.683-0.291-2.385-0.824s-1.185-1.212-1.447-2.040c0.28 0.043 0.537 0.064 0.774 0.064 0.364 0 0.724-0.047 1.079-0.14-0.948-0.197-1.733-0.671-2.355-1.425s-0.933-1.63-0.933-2.628v-0.051c0.576 0.324 1.194 0.499 1.854 0.525-0.559-0.376-1.003-0.866-1.332-1.471s-0.494-1.261-0.494-1.969c0-0.749 0.185-1.444 0.558-2.084 1.024 1.27 2.27 2.286 3.738 3.050s3.039 1.187 4.715 1.272c-0.067-0.323-0.101-0.639-0.101-0.946 0-1.142 0.399-2.116 1.199-2.921s1.767-1.208 2.901-1.209c1.184 0 2.18 0.435 2.994 1.304 0.922-0.179 1.789-0.511 2.602-0.997-0.314 0.981-0.914 1.739-1.802 2.276 0.786-0.086 1.572-0.3 2.358-0.641v0z"></path>
</svg>
